<svg width="25" height="24" viewBox="0 0 25 24" fill="none" xmlns="http://www.w3.org/2000/svg">
<path d="M8.51138 21.8146C17.5914 21.8146 22.5569 14.2776 22.5569 7.74175C22.5569 7.52771 22.5526 7.31464 22.543 7.10245C23.5091 6.40198 24.343 5.53469 25.0054 4.54123C24.1209 4.93523 23.169 5.20042 22.1705 5.31998C23.1897 4.70767 23.9721 3.73897 24.3413 2.58429C23.3723 3.16025 22.3121 3.56628 21.2066 3.78486C20.3058 2.82346 19.0234 2.22217 17.6033 2.22217C14.8772 2.22217 12.6665 4.43719 12.6665 7.16755C12.6665 7.55572 12.7099 7.93317 12.7946 8.29534C8.69174 8.08849 5.05364 6.12033 2.61884 3.12763C2.18031 3.88245 1.94965 4.74032 1.95042 5.61362C1.95042 7.32963 2.8219 8.84447 4.1472 9.73073C3.36327 9.70674 2.59654 9.49459 1.91149 9.1121C1.91076 9.13287 1.91076 9.1531 1.91076 9.17528C1.91076 11.5706 3.61234 13.5706 5.87113 14.0237C5.4469 14.1395 5.00914 14.198 4.56944 14.1978C4.25191 14.1978 3.94244 14.1665 3.64168 14.1086C4.27015 16.0738 6.09252 17.5039 8.25316 17.5439C6.56357 18.8708 4.4352 19.6611 2.12198 19.6611C1.72847 19.6614 1.33528 19.6385 0.944458 19.5925C3.12921 20.9956 5.72339 21.8143 8.51162 21.8143" fill="#1DA1F2"/>
</svg>
