<svg width="40" height="40" viewBox="0 0 40 40" fill="none" xmlns="http://www.w3.org/2000/svg">
<path d="M22.5 35.001H17.5" stroke="white" stroke-width="3" stroke-linecap="round" stroke-linejoin="round"/>
<path d="M19.2188 3.09461C16.25 5.46961 6.32813 14.9696 15 30.0009H25C33.5 14.9696 23.7188 5.48524 20.7813 3.09461C20.5621 2.91156 20.2856 2.81128 20 2.81128C19.7144 2.81128 19.4379 2.91156 19.2188 3.09461Z" stroke="white" stroke-width="3" stroke-linecap="round" stroke-linejoin="round"/>
<path d="M11.5469 17.4072L6.64061 23.2822C6.51701 23.4264 6.4298 23.5982 6.3863 23.7831C6.3428 23.9679 6.34428 24.1605 6.39061 24.3447L8.31249 33.0479C8.35887 33.2547 8.4571 33.4464 8.59794 33.6049C8.73879 33.7633 8.91763 33.8833 9.11764 33.9537C9.31764 34.024 9.53225 34.0423 9.74127 34.0068C9.95029 33.9714 10.1469 33.8833 10.3125 33.751L15 30.001" stroke="white" stroke-width="3" stroke-linecap="round" stroke-linejoin="round"/>
<path d="M28.3594 17.2822L33.3594 23.2822C33.483 23.4264 33.5702 23.5982 33.6137 23.7831C33.6572 23.9679 33.6557 24.1605 33.6094 24.3447L31.6875 33.0479C31.6411 33.2547 31.5429 33.4464 31.402 33.6049C31.2612 33.7633 31.0824 33.8833 30.8824 33.9537C30.6823 34.024 30.4677 34.0423 30.2587 34.0068C30.0497 33.9714 29.8531 33.8833 29.6875 33.751L25 30.001" stroke="white" stroke-width="3" stroke-linecap="round" stroke-linejoin="round"/>
<path d="M20 16.876C21.0355 16.876 21.875 16.0365 21.875 15.001C21.875 13.9654 21.0355 13.126 20 13.126C18.9645 13.126 18.125 13.9654 18.125 15.001C18.125 16.0365 18.9645 16.876 20 16.876Z" fill="white"/>
</svg>
