<svg width="17" height="16" viewBox="0 0 17 16" fill="none" xmlns="http://www.w3.org/2000/svg">
<path d="M6.00763 14.5431C12.061 14.5431 15.3713 9.5184 15.3713 5.16117C15.3713 5.01847 15.3684 4.87643 15.362 4.73497C16.0061 4.26799 16.562 3.68979 17.0036 3.02749C16.4139 3.29016 15.7794 3.46694 15.1137 3.54665C15.7932 3.13844 16.3148 2.49264 16.5609 1.72286C15.9149 2.10683 15.2081 2.37752 14.4711 2.52324C13.8706 1.88231 13.0156 1.48145 12.0689 1.48145C10.2515 1.48145 8.7777 2.95813 8.7777 4.77837C8.7777 5.03715 8.80662 5.28878 8.86308 5.53023C6.12786 5.39233 3.70247 4.08022 2.07927 2.08509C1.78692 2.5883 1.63314 3.16021 1.63365 3.74241C1.63365 4.88642 2.21464 5.89631 3.09818 6.48715C2.57555 6.47116 2.0644 6.32972 1.6077 6.07473C1.60721 6.08858 1.60721 6.10206 1.60721 6.11686C1.60721 7.71374 2.7416 9.04704 4.24746 9.34915C3.96464 9.42633 3.6728 9.46534 3.37967 9.46517C3.16798 9.46517 2.96167 9.44431 2.76116 9.40574C3.18014 10.7159 4.39505 11.6693 5.83548 11.6959C4.70908 12.5805 3.29017 13.1074 1.74803 13.1074C1.48569 13.1076 1.22356 13.0923 0.963013 13.0617C2.41951 13.9971 4.14897 14.5429 6.00779 14.5429" fill="#00BBFF"/>
</svg>
