<svg width="16" height="16" viewBox="0 0 16 16" fill="none" xmlns="http://www.w3.org/2000/svg">
<path fill-rule="evenodd" clip-rule="evenodd" d="M15.884 7.99631C15.884 3.64021 12.3527 0.108887 7.99656 0.108887C3.64046 0.108887 0.109131 3.64021 0.109131 7.99631C0.109131 12.3524 3.64046 15.8837 7.99656 15.8837C12.3527 15.8837 15.884 12.3524 15.884 7.99631ZM7.99656 15.8837C7.46609 15.8837 6.948 15.831 6.44687 15.7311V9.7255H5.16052V7.58107H6.44687V6.2938C6.44687 4.54436 7.17308 3.50423 9.23662 3.50423H10.9546V5.64883H9.8807C9.0774 5.64883 9.02427 5.94835 9.02427 6.50762L9.02139 7.5809H10.9666L10.7389 9.72514H9.02139V15.8175C8.68155 15.8616 8.33923 15.8837 7.99656 15.8837Z" fill="#00BBFF"/>
</svg>
