<svg width="20" height="15" viewBox="0 0 20 15" fill="none" xmlns="http://www.w3.org/2000/svg">
<path d="M5.28924 0.339742C8.42388 0.067254 11.5763 0.0672538 14.7109 0.339742L16.2211 0.471024C17.2265 0.558419 18.0876 1.15809 18.5337 2.01587C18.5908 2.1256 18.548 2.25846 18.4428 2.32357L12.1769 6.2025C10.833 7.03441 9.1385 7.05187 7.77778 6.24781L1.46995 2.52046C1.36804 2.46024 1.32126 2.33627 1.36719 2.22717C1.77535 1.25761 2.69298 0.565431 3.77901 0.471024L5.28924 0.339742Z" fill="white"/>
<path d="M1.36206 4.19901C1.20609 4.10685 1.00709 4.20602 0.988912 4.38627C0.735176 6.9019 0.796587 9.44135 1.17314 11.9455C1.37166 13.2656 2.44907 14.2776 3.77901 14.3932L5.28924 14.5245C8.42388 14.797 11.5763 14.797 14.7109 14.5245L16.2211 14.3932C17.5511 14.2776 18.6285 13.2656 18.827 11.9455C19.2145 9.36838 19.2683 6.75387 18.9882 4.16641C18.9686 3.98489 18.7662 3.88754 18.611 3.98364L12.9664 7.47789C11.1482 8.60343 8.85566 8.62704 7.01468 7.5392L1.36206 4.19901Z" fill="white"/>
</svg>
