<svg width="29" height="29" viewBox="0 0 29 29" fill="none" xmlns="http://www.w3.org/2000/svg">
<path d="M9.00781 14.5499C10.1655 16.9406 12.0986 18.8687 14.4922 20.0202C14.6687 20.1038 14.864 20.14 15.0588 20.1252C15.2536 20.1104 15.4412 20.0452 15.6031 19.9359L19.1187 17.5874C19.2741 17.4821 19.4536 17.4178 19.6404 17.4006C19.8273 17.3834 20.0155 17.4138 20.1875 17.489L26.7687 20.3155C26.9937 20.4092 27.1816 20.5741 27.3036 20.785C27.4255 20.9959 27.4748 21.2411 27.4437 21.4827C27.2352 23.1108 26.4405 24.6071 25.2084 25.6916C23.9764 26.7761 22.3914 27.3746 20.75 27.3749C15.6777 27.3749 10.8132 25.36 7.22658 21.7733C3.63995 18.1867 1.625 13.3222 1.625 8.24992C1.62537 6.60855 2.2238 5.02354 3.30832 3.79149C4.39283 2.55944 5.88912 1.76477 7.51719 1.55617C7.75883 1.52513 8.00399 1.57439 8.21489 1.69636C8.4258 1.81833 8.59076 2.00625 8.68437 2.23117L11.5109 8.82649C11.5844 8.99572 11.6152 9.18045 11.6005 9.36437C11.5858 9.54829 11.526 9.72577 11.4266 9.88117L9.07812 13.453C8.97357 13.6146 8.91221 13.8003 8.8999 13.9923C8.88759 14.1844 8.92474 14.3763 9.00781 14.5499V14.5499Z" stroke="white" stroke-width="2.5" stroke-linecap="round" stroke-linejoin="round"/>
</svg>
