<svg width="24" height="24" viewBox="0 0 24 24" fill="none" xmlns="http://www.w3.org/2000/svg">
<path d="M0 3.03219C0 2.26198 0.270278 1.62656 0.810811 1.12595C1.35134 0.625307 2.05406 0.375 2.91892 0.375C3.76835 0.375 4.45559 0.621449 4.98069 1.11439C5.52123 1.62272 5.79151 2.28508 5.79151 3.10151C5.79151 3.8409 5.52896 4.45705 5.00386 4.94999C4.46333 5.45832 3.7529 5.71249 2.87259 5.71249H2.84942C1.99999 5.71249 1.31275 5.45832 0.787645 4.94999C0.262541 4.44166 0 3.80238 0 3.03219ZM0.301158 23.25V7.81514H5.44402V23.25H0.301158ZM8.29344 23.25H13.4363V14.6314C13.4363 14.0923 13.4981 13.6763 13.6216 13.3837C13.8378 12.8599 14.166 12.4171 14.6062 12.0551C15.0463 11.6931 15.5984 11.5121 16.2625 11.5121C17.9923 11.5121 18.8571 12.6751 18.8571 15.0011V23.25H24V14.4003C24 12.1205 23.4595 10.3915 22.3784 9.21305C21.2973 8.03464 19.8687 7.44544 18.0927 7.44544C16.1004 7.44544 14.5483 8.30036 13.4363 10.0102V10.0564H13.4131L13.4363 10.0102V7.81514H8.29344C8.32432 8.30806 8.33977 9.84075 8.33977 12.4132C8.33977 14.9857 8.32432 18.5979 8.29344 23.25Z" fill="#006699"/>
</svg>
