<svg width="24" height="24" viewBox="0 0 24 24" fill="none" xmlns="http://www.w3.org/2000/svg">
<path fill-rule="evenodd" clip-rule="evenodd" d="M23.826 11.9947C23.826 5.46056 18.529 0.163574 11.9948 0.163574C5.46069 0.163574 0.163696 5.46056 0.163696 11.9947C0.163696 18.5289 5.46069 23.8258 11.9948 23.8258C11.1991 23.8258 10.422 23.7467 9.67031 23.597V14.5885H7.74078V11.3718H9.67031V9.44094C9.67031 6.81679 10.7596 5.25659 13.8549 5.25659H16.4318V8.47349H14.8211C13.6161 8.47349 13.5364 8.92277 13.5364 9.76167L13.5321 11.3716H16.4499L16.1084 14.5879H13.5321V23.7265C13.0766 23.7856 12.6182 23.8184 12.1591 23.8247C18.6175 23.7369 23.826 18.474 23.826 11.9947Z" fill="url(#paint0_linear_206_124)"/>
<defs>
<linearGradient id="paint0_linear_206_124" x1="11.9948" y1="-0.0520009" x2="11.9948" y2="24.8348" gradientUnits="userSpaceOnUse">
<stop stop-color="#00B2FF"/>
<stop offset="1" stop-color="#006AFF"/>
</linearGradient>
</defs>
</svg>
