<svg width="25" height="25" viewBox="0 0 25 25" fill="none" xmlns="http://www.w3.org/2000/svg">
<path fill-rule="evenodd" clip-rule="evenodd" d="M5.5 16.6821C5.91421 16.6821 6.25 17.0179 6.25 17.4321V19.4321C6.25 19.5702 6.36193 19.6821 6.5 19.6821H18.5C18.6381 19.6821 18.75 19.5702 18.75 19.4321V17.4321C18.75 17.0179 19.0858 16.6821 19.5 16.6821C19.9142 16.6821 20.25 17.0179 20.25 17.4321V19.4321C20.25 20.3986 19.4665 21.1821 18.5 21.1821H6.5C5.5335 21.1821 4.75 20.3986 4.75 19.4321V17.4321C4.75 17.0179 5.08579 16.6821 5.5 16.6821Z" fill="#00BBFF"/>
<path d="M11.2379 4.18213C10.7236 4.18213 10.2945 4.57525 10.2495 5.08768C10.0959 6.84039 10.0688 8.60172 10.1684 10.358C9.92139 10.3716 9.6745 10.3874 9.42773 10.4054L7.93822 10.514C7.36392 10.5559 7.04288 11.1962 7.35293 11.6815C8.41497 13.3435 9.78343 14.7885 11.3854 15.9392L11.9821 16.3679C12.2916 16.5902 12.7085 16.5902 13.018 16.3679L13.6147 15.9392C15.2167 14.7885 16.5851 13.3435 17.6472 11.6815C17.9572 11.1962 17.6362 10.5559 17.0619 10.514L15.5724 10.4054C15.3256 10.3874 15.0787 10.3716 14.8317 10.358C14.9313 8.60172 14.9042 6.84039 14.7506 5.08767C14.7056 4.57525 14.2765 4.18213 13.7622 4.18213H11.2379Z" fill="#00BBFF"/>
</svg>
