<svg width="88" height="88" viewBox="0 0 88 88" fill="none" xmlns="http://www.w3.org/2000/svg">
<rect y="0.000976562" width="88" height="88" rx="16" fill="#005CE8"/>
<path d="M46.5 59.001H41.5" stroke="white" stroke-width="3" stroke-linecap="round" stroke-linejoin="round"/>
<path d="M43.2188 27.0946C40.25 29.4696 30.3281 38.9696 39 54.0009H49C57.5 38.9696 47.7188 29.4852 44.7813 27.0946C44.5621 26.9116 44.2856 26.8113 44 26.8113C43.7144 26.8113 43.4379 26.9116 43.2188 27.0946Z" stroke="white" stroke-width="3" stroke-linecap="round" stroke-linejoin="round"/>
<path d="M35.5469 41.4072L30.6406 47.2822C30.517 47.4264 30.4298 47.5982 30.3863 47.7831C30.3428 47.9679 30.3443 48.1605 30.3906 48.3447L32.3125 57.0479C32.3589 57.2547 32.4571 57.4464 32.5979 57.6049C32.7388 57.7633 32.9176 57.8833 33.1176 57.9537C33.3176 58.024 33.5322 58.0423 33.7413 58.0068C33.9503 57.9714 34.1469 57.8833 34.3125 57.751L39 54.001" stroke="white" stroke-width="3" stroke-linecap="round" stroke-linejoin="round"/>
<path d="M52.3594 41.2822L57.3594 47.2822C57.483 47.4264 57.5702 47.5982 57.6137 47.7831C57.6572 47.9679 57.6557 48.1605 57.6094 48.3447L55.6875 57.0479C55.6411 57.2547 55.5429 57.4464 55.402 57.6049C55.2612 57.7633 55.0824 57.8833 54.8824 57.9537C54.6823 58.024 54.4677 58.0423 54.2587 58.0068C54.0497 57.9714 53.8531 57.8833 53.6875 57.751L49 54.001" stroke="white" stroke-width="3" stroke-linecap="round" stroke-linejoin="round"/>
<path d="M44 40.876C45.0355 40.876 45.875 40.0365 45.875 39.001C45.875 37.9654 45.0355 37.126 44 37.126C42.9645 37.126 42.125 37.9654 42.125 39.001C42.125 40.0365 42.9645 40.876 44 40.876Z" fill="white"/>
</svg>
