<svg width="1919" height="890" viewBox="0 0 1919 890" fill="none" xmlns="http://www.w3.org/2000/svg">
<path d="M0 762.599L40.1067 789.7C80.4267 817.006 160.64 871.208 240.64 874.673C320.64 878.137 400.427 830.454 480.427 820.266C560.427 810.077 640.64 837.383 720.64 859.39C800.64 881.397 880.427 898.514 960.427 885.472C1040.43 872.635 1120.64 829.843 1200.64 801.315C1280.64 772.788 1360.43 758.524 1440.43 778.493C1520.43 798.666 1600.64 852.869 1680.64 848.182C1760.64 843.496 1840.43 779.512 1880.11 747.724L1920 715.732V0C1280 0 640 0 0 0L0 762.599Z" fill="#121314"/>
<path d="M1919.5 419.899L1873.66 412.205C1827.81 404.51 1736.13 389.121 1644.87 408.247C1553.4 427.154 1462.56 480.795 1371.09 473.321C1279.83 466.066 1188.15 397.915 1096.89 387.362C1005.42 376.59 914.583 423.636 823.111 452.216C731.852 480.796 640.166 490.908 548.907 488.71C457.435 486.511 366.602 472.002 275.13 467.825C183.871 463.868 92.1852 470.463 46.3424 473.761L0.499633 477.058L0.499591 0.000350957L46.3424 0.000346947C92.1851 0.000342938 183.871 0.000334918 275.13 0.000326936C366.602 0.000318935 457.435 0.00031099 548.907 0.000302989C640.166 0.000295007 731.852 0.000286987 823.111 0.000279005C914.583 0.000271004 1005.42 0.000263059 1096.89 0.000255058C1188.15 0.000247076 1279.83 0.000239056 1371.09 0.000231074C1462.56 0.000223073 1553.4 0.000215128 1644.87 0.000207127C1736.13 0.000199145 1827.81 0.000191125 1873.66 0.000187115L1919.5 0.000183105L1919.5 419.899Z" fill="#121314"/>
<path d="M1919.5 360.541L1873.66 358.783C1827.81 356.804 1736.13 353.287 1644.87 348.01C1553.4 342.954 1462.56 336.359 1371.09 334.82C1279.83 333.501 1188.15 337.018 1096.89 340.316C1005.42 343.614 914.583 346.691 823.111 363.4C731.852 380.327 640.166 411.105 548.907 399.014C457.435 386.923 366.602 331.962 275.13 332.402C183.871 332.622 92.1852 388.462 46.3424 416.162L0.499634 444.082L0.499595 0.000228887L46.3424 0.000224877C92.1851 0.000220867 183.871 0.000212848 275.13 0.000204865C366.602 0.000196865 457.435 0.00018892 548.907 0.000180919C640.166 0.000172936 731.852 0.000164917 823.111 0.000156934C914.583 0.000148934 1005.42 0.000140989 1096.89 0.000132988C1188.15 0.000125005 1279.83 0.000116986 1371.09 0.000109003C1462.56 0.000101003 1553.4 9.30575e-05 1644.87 8.50566e-05C1736.13 7.70743e-05 1827.81 6.90547e-05 1873.66 6.50449e-05L1919.5 6.10352e-05L1919.5 360.541Z" fill="#1B1C1E"/>
<path d="M1919.5 303.382L1873.66 289.093C1827.81 274.803 1736.13 246.223 1644.87 250.62C1553.4 255.017 1462.56 292.39 1371.09 311.077C1279.83 329.764 1188.15 329.764 1096.89 306.021C1005.42 282.058 914.583 234.572 823.111 234.132C731.852 233.693 640.166 280.739 548.907 290.192C457.435 299.645 366.602 271.945 275.13 264.47C183.871 257.216 92.1852 270.406 46.3424 277.002L0.49963 283.597L0.499605 0.000228887L46.3424 0.000224877C92.1852 0.000220867 183.871 0.000212848 275.13 0.000204865C366.602 0.000196865 457.435 0.00018892 548.907 0.000180919C640.166 0.000172936 731.852 0.000164917 823.111 0.000156934C914.583 0.000148934 1005.42 0.000140989 1096.89 0.000132988C1188.15 0.000125005 1279.83 0.000116986 1371.09 0.000109003C1462.56 0.000101003 1553.4 9.30575e-05 1644.87 8.50566e-05C1736.13 7.70743e-05 1827.81 6.90547e-05 1873.66 6.50449e-05L1919.5 6.10352e-05L1919.5 303.382Z" fill="#232628"/>
<path d="M1919.5 250.62L1873.66 241.167C1827.81 231.494 1736.13 212.588 1644.87 191.922C1553.4 171.477 1462.56 149.493 1371.09 140.259C1279.83 131.246 1188.15 134.763 1096.89 152.131C1005.42 169.279 914.583 200.057 823.111 205.553C731.852 211.049 640.166 191.263 548.907 174.775C457.435 158.287 366.602 145.096 275.13 156.528C183.871 167.74 92.1852 203.794 46.3424 221.601L0.499633 239.628L0.499612 0.000198369L46.3424 0.00019436C92.1852 0.00019035 183.871 0.00018233 275.13 0.000174348C366.602 0.000166347 457.435 0.000158402 548.907 0.000150401C640.166 0.000142419 731.852 0.000134399 823.111 0.000126417C914.583 0.000118416 1005.42 0.000110471 1096.89 0.00010247C1188.15 9.44877e-05 1279.83 8.64682e-05 1371.09 7.84859e-05C1462.56 7.04849e-05 1553.4 6.254e-05 1644.87 5.4539e-05C1736.13 4.65567e-05 1827.81 3.85372e-05 1873.66 3.45274e-05L1919.5 3.05176e-05L1919.5 250.62Z" fill="#2C3033"/>
<path d="M1919.5 114.318L1873.66 111.02C1827.81 107.723 1736.13 101.128 1644.87 97.1704C1553.4 92.9934 1462.56 91.6743 1371.09 97.8299C1279.83 103.986 1188.15 118.055 1096.89 122.452C1005.42 126.849 914.583 121.573 823.111 110.361C731.852 98.9292 640.166 81.3418 548.907 85.2989C457.435 89.476 366.602 114.978 275.13 125.75C183.871 136.302 92.1852 131.906 46.3424 129.707L0.499633 127.509L0.499622 0.000198369L46.3424 0.00019436C92.1852 0.00019035 183.871 0.00018233 275.13 0.000174348C366.602 0.000166347 457.435 0.000158402 548.907 0.000150401C640.166 0.000142419 731.852 0.000134399 823.111 0.000126417C914.583 0.000118416 1005.42 0.000110471 1096.89 0.00010247C1188.15 9.44877e-05 1279.83 8.64682e-05 1371.09 7.84859e-05C1462.56 7.04849e-05 1553.4 6.254e-05 1644.87 5.4539e-05C1736.13 4.65567e-05 1827.81 3.85372e-05 1873.66 3.45274e-05L1919.5 3.05176e-05L1919.5 114.318Z" fill="#353A3E"/>
<mask id="mask0_201_2005" style="mask-type:alpha" maskUnits="userSpaceOnUse" x="0" y="0" width="1920" height="890">
<path d="M0 762.599L40.1067 789.7C80.4267 817.006 160.64 871.208 240.64 874.673C320.64 878.137 400.427 830.454 480.427 820.266C560.427 810.077 640.64 837.383 720.64 859.39C800.64 881.397 880.427 898.514 960.427 885.472C1040.43 872.635 1120.64 829.843 1200.64 801.315C1280.64 772.788 1360.43 758.524 1440.43 778.493C1520.43 798.666 1600.64 852.869 1680.64 848.182C1760.64 843.496 1840.43 779.512 1880.11 747.724L1920 715.732V0C1280 0 640 0 0 0L0 762.599Z" fill="#121314"/>
</mask>
<g mask="url(#mask0_201_2005)">
<path d="M107.543 659.96C114.413 659.96 120.461 661.043 125.687 663.208C130.989 665.299 135.581 668.397 139.463 672.504L130.167 684.936C126.957 681.576 123.485 679.075 119.751 677.432C116.093 675.715 111.911 674.856 107.207 674.856C104.445 674.856 102.205 675.155 100.487 675.752C98.7701 676.349 97.5381 677.171 96.7915 678.216C96.0448 679.261 95.6715 680.456 95.6715 681.8C95.6715 683.368 96.3808 684.712 97.7995 685.832C99.2928 686.877 101.682 687.773 104.967 688.52L117.399 691.32C124.791 693.037 130.205 695.539 133.639 698.824C137.074 702.109 138.791 706.477 138.791 711.928C138.791 717.155 137.447 721.597 134.759 725.256C132.071 728.84 128.375 731.565 123.671 733.432C118.967 735.224 113.591 736.12 107.543 736.12C102.615 736.12 97.9115 735.597 93.4315 734.552C88.9515 733.432 84.9195 731.864 81.3355 729.848C77.7515 727.832 74.7275 725.517 72.2635 722.904L81.5595 710.024C83.4261 712.189 85.7035 714.131 88.3915 715.848C91.1541 717.491 94.1408 718.797 97.3515 719.768C100.637 720.739 103.959 721.224 107.319 721.224C109.933 721.224 112.098 720.963 113.815 720.44C115.607 719.917 116.914 719.133 117.735 718.088C118.557 717.043 118.967 715.811 118.967 714.392C118.967 712.824 118.407 711.517 117.287 710.472C116.167 709.352 114.039 708.419 110.903 707.672L97.2395 704.648C93.0581 703.677 89.3248 702.408 86.0395 700.84C82.8288 699.197 80.2901 697.032 78.4235 694.344C76.5568 691.581 75.6235 688.147 75.6235 684.04C75.6235 679.411 76.8928 675.304 79.4315 671.72C81.9701 668.061 85.6288 665.187 90.4075 663.096C95.1861 661.005 100.898 659.96 107.543 659.96ZM176.147 677.88C182.046 677.88 187.198 679.037 191.603 681.352C196.083 683.592 199.555 686.915 202.019 691.32C204.558 695.651 205.827 700.877 205.827 707C205.827 713.123 204.558 718.387 202.019 722.792C199.555 727.123 196.083 730.445 191.603 732.76C187.198 735 182.046 736.12 176.147 736.12C170.398 736.12 165.283 735 160.803 732.76C156.323 730.445 152.814 727.123 150.275 722.792C147.811 718.387 146.579 713.123 146.579 707C146.579 700.877 147.811 695.651 150.275 691.32C152.814 686.915 156.323 683.592 160.803 681.352C165.283 679.037 170.398 677.88 176.147 677.88ZM176.147 691.432C173.982 691.432 172.115 691.955 170.547 693C168.979 694.045 167.784 695.725 166.963 698.04C166.142 700.355 165.731 703.341 165.731 707C165.731 710.659 166.142 713.645 166.963 715.96C167.784 718.2 168.979 719.88 170.547 721C172.115 722.045 173.982 722.568 176.147 722.568C178.387 722.568 180.291 722.045 181.859 721C183.427 719.88 184.622 718.2 185.443 715.96C186.264 713.645 186.675 710.659 186.675 707C186.675 703.341 186.264 700.355 185.443 698.04C184.622 695.725 183.427 694.045 181.859 693C180.291 691.955 178.387 691.432 176.147 691.432ZM242.306 653.688C245.367 653.688 248.055 654.024 250.37 654.696C252.684 655.293 254.402 656.003 255.522 656.824L253.618 668.696C252.796 668.173 251.863 667.763 250.818 667.464C249.772 667.165 248.466 667.016 246.898 667.016C244.284 667.016 242.119 667.613 240.402 668.808C238.759 670.003 237.938 672.093 237.938 675.08V682.36L239.058 685.496V735H220.018V673.848C220.018 670.264 220.578 667.203 221.698 664.664C222.892 662.125 224.535 660.035 226.626 658.392C228.716 656.749 231.106 655.555 233.794 654.808C236.482 654.061 239.319 653.688 242.306 653.688ZM254.962 679V692.552H211.058V679H254.962ZM282.165 661.192V715.064C282.165 717.752 282.799 719.693 284.069 720.888C285.413 722.008 287.242 722.568 289.557 722.568C291.349 722.568 292.879 722.381 294.149 722.008C295.493 721.56 296.687 720.925 297.733 720.104L299.749 731.864C297.882 733.208 295.53 734.253 292.693 735C289.855 735.747 286.943 736.12 283.957 736.12C279.701 736.12 276.005 735.523 272.869 734.328C269.807 733.133 267.418 731.229 265.701 728.616C264.058 726.003 263.199 722.531 263.125 718.2V666.456L282.165 661.192ZM298.853 679V692.552H253.493V679H298.853ZM381.007 679H400.943L384.031 735H361.183L350.991 700.616L341.135 735H318.399L301.375 679H321.423L330.831 720.328L341.807 679H360.623L371.487 720.328L381.007 679ZM439.083 699.496C439.083 696.883 438.336 694.829 436.843 693.336C435.424 691.768 433.483 690.984 431.019 690.984C428.555 690.984 426.427 691.619 424.635 692.888C422.917 694.083 421.723 696.248 421.051 699.384L404.923 695.576C405.968 690.2 408.731 685.907 413.211 682.696C417.691 679.485 424 677.88 432.139 677.88C437.589 677.88 442.219 678.701 446.027 680.344C449.909 681.912 452.859 684.301 454.875 687.512C456.965 690.648 458.011 694.531 458.011 699.16V719.656C458.011 722.568 459.317 724.024 461.931 724.024C463.275 724.024 464.357 723.875 465.179 723.576L464.059 734.44C461.819 735.485 459.093 736.008 455.883 736.008C452.971 736.008 450.395 735.56 448.155 734.664C445.915 733.693 444.16 732.275 442.891 730.408C441.621 728.467 440.987 726.04 440.987 723.128V722.456L443.115 721.672C443.115 724.883 442.144 727.571 440.203 729.736C438.336 731.901 435.872 733.507 432.811 734.552C429.824 735.597 426.688 736.12 423.403 736.12C419.595 736.12 416.272 735.523 413.435 734.328C410.597 733.133 408.395 731.416 406.827 729.176C405.333 726.861 404.587 724.024 404.587 720.664C404.587 716.632 405.781 713.309 408.171 710.696C410.635 708.008 414.48 706.141 419.707 705.096L440.875 700.728L440.763 710.808L430.011 713.048C427.771 713.496 426.091 714.168 424.971 715.064C423.925 715.885 423.403 717.155 423.403 718.872C423.403 720.515 424 721.747 425.195 722.568C426.389 723.389 427.808 723.8 429.451 723.8C430.72 723.8 431.915 723.613 433.035 723.24C434.229 722.867 435.275 722.307 436.171 721.56C437.067 720.739 437.776 719.731 438.299 718.536C438.821 717.341 439.083 715.923 439.083 714.28V699.496ZM472.694 735V679H489.494L490.278 691.096C491.697 686.915 493.787 683.667 496.55 681.352C499.387 679.037 502.971 677.88 507.302 677.88C508.721 677.88 509.915 677.992 510.886 678.216C511.931 678.44 512.753 678.739 513.35 679.112L511.446 694.792C510.699 694.493 509.729 694.269 508.534 694.12C507.414 693.896 506.033 693.784 504.39 693.784C502.15 693.784 500.059 694.269 498.118 695.24C496.177 696.211 494.609 697.667 493.414 699.608C492.294 701.475 491.734 703.864 491.734 706.776V735H472.694ZM547.491 736.12C541.293 736.12 535.917 734.963 531.363 732.648C526.883 730.333 523.411 727.011 520.947 722.68C518.483 718.349 517.251 713.123 517.251 707C517.251 700.877 518.483 695.651 520.947 691.32C523.411 686.989 526.845 683.667 531.251 681.352C535.731 679.037 540.845 677.88 546.595 677.88C552.493 677.88 557.496 679.037 561.603 681.352C565.784 683.592 568.957 686.728 571.123 690.76C573.288 694.717 574.371 699.272 574.371 704.424C574.371 705.768 574.333 707.112 574.259 708.456C574.184 709.8 574.072 710.92 573.923 711.816H529.571V701.624H565.523L556.451 705.096C556.451 700.616 555.629 697.181 553.987 694.792C552.419 692.403 549.955 691.208 546.595 691.208C544.205 691.208 542.152 691.768 540.435 692.888C538.792 694.008 537.523 695.763 536.627 698.152C535.805 700.541 535.395 703.603 535.395 707.336C535.395 710.995 535.88 713.981 536.851 716.296C537.821 718.536 539.203 720.179 540.995 721.224C542.787 722.195 544.952 722.68 547.491 722.68C550.328 722.68 552.568 722.12 554.211 721C555.928 719.88 557.197 718.312 558.019 716.296L573.251 721.336C572.205 724.547 570.376 727.272 567.763 729.512C565.224 731.677 562.163 733.32 558.579 734.44C555.069 735.56 551.373 736.12 547.491 736.12ZM91.1709 847V773.08H148.739V787.976H110.435V802.984H140.899V816.984H110.435V832.104H150.195V847H91.1709ZM160.483 847V791H177.507L178.515 810.264L176.387 808.136C177.134 804.104 178.44 800.744 180.307 798.056C182.248 795.368 184.638 793.352 187.475 792.008C190.387 790.589 193.635 789.88 197.219 789.88C201.102 789.88 204.462 790.627 207.299 792.12C210.211 793.613 212.488 795.816 214.131 798.728C215.774 801.64 216.595 805.299 216.595 809.704V847H197.555V814.744C197.555 810.861 196.808 808.173 195.315 806.68C193.822 805.187 191.918 804.44 189.603 804.44C187.811 804.44 186.131 804.888 184.563 805.784C182.995 806.605 181.763 807.949 180.867 809.816C179.971 811.683 179.523 814.184 179.523 817.32V847H160.483ZM284.144 775.992L285.712 788.76C285.264 788.611 284.816 788.536 284.368 788.536C283.92 788.461 283.472 788.424 283.024 788.424C279.739 788.424 277.275 789.245 275.632 790.888C274.064 792.456 273.28 794.435 273.28 796.824L266.56 794.36C266.56 791.299 267.12 788.349 268.24 785.512C269.36 782.675 271.078 780.36 273.392 778.568C275.782 776.776 278.768 775.88 282.352 775.88C282.576 775.88 282.838 775.88 283.136 775.88C283.51 775.88 283.846 775.917 284.144 775.992ZM264.88 834.568C271.376 834.568 276.342 835.949 279.776 838.712C283.286 841.4 285.04 845.283 285.04 850.36C285.04 854.989 283.771 858.835 281.232 861.896C278.694 864.957 275.11 867.235 270.48 868.728C265.926 870.296 260.512 871.08 254.24 871.08C244.086 871.08 236.768 869.811 232.288 867.272C227.808 864.733 225.568 861.299 225.568 856.968C225.568 853.832 226.838 851.293 229.376 849.352C231.915 847.411 236.134 846.365 242.032 846.216L241.584 848.008C237.03 847.411 233.632 846.067 231.392 843.976C229.152 841.885 228.032 839.048 228.032 835.464C228.032 831.88 229.451 828.968 232.288 826.728C235.126 824.488 238.896 823.256 243.6 823.032L250.544 826.28H248.752C245.84 826.429 243.787 826.915 242.592 827.736C241.398 828.557 240.8 829.565 240.8 830.76C240.8 832.029 241.323 833 242.368 833.672C243.414 834.269 244.982 834.568 247.072 834.568H264.88ZM254.352 858.76C257.936 858.76 260.886 858.499 263.2 857.976C265.59 857.528 267.382 856.856 268.576 855.96C269.771 855.139 270.368 854.168 270.368 853.048C270.368 851.928 269.958 851.032 269.136 850.36C268.315 849.763 266.822 849.464 264.656 849.464H244.608C243.19 849.464 242.032 849.837 241.136 850.584C240.315 851.331 239.904 852.264 239.904 853.384C239.904 855.101 241.174 856.408 243.712 857.304C246.251 858.275 249.798 858.76 254.352 858.76ZM255.024 789.88C260.699 789.88 265.552 790.627 269.584 792.12C273.616 793.613 276.678 795.779 278.768 798.616C280.934 801.379 282.016 804.813 282.016 808.92C282.016 812.952 280.934 816.387 278.768 819.224C276.678 822.061 273.616 824.227 269.584 825.72C265.552 827.139 260.699 827.848 255.024 827.848C246.139 827.848 239.382 826.205 234.752 822.92C230.198 819.635 227.92 814.968 227.92 808.92C227.92 804.813 228.966 801.379 231.056 798.616C233.222 795.779 236.32 793.613 240.352 792.12C244.384 790.627 249.275 789.88 255.024 789.88ZM255.024 800.744C252.56 800.744 250.544 801.453 248.976 802.872C247.483 804.291 246.736 806.307 246.736 808.92C246.736 811.459 247.483 813.437 248.976 814.856C250.544 816.275 252.56 816.984 255.024 816.984C257.414 816.984 259.392 816.275 260.96 814.856C262.528 813.437 263.312 811.459 263.312 808.92C263.312 806.307 262.528 804.291 260.96 802.872C259.392 801.453 257.414 800.744 255.024 800.744ZM302.128 784.504C298.245 784.504 295.408 783.795 293.616 782.376C291.899 780.883 291.04 778.568 291.04 775.432C291.04 772.221 291.899 769.907 293.616 768.488C295.408 766.995 298.245 766.248 302.128 766.248C305.936 766.248 308.736 766.995 310.528 768.488C312.32 769.907 313.216 772.221 313.216 775.432C313.216 778.568 312.32 780.883 310.528 782.376C308.736 783.795 305.936 784.504 302.128 784.504ZM311.648 791V847H292.608V791H311.648ZM325.202 847V791H342.226L343.234 810.264L341.106 808.136C341.853 804.104 343.159 800.744 345.026 798.056C346.967 795.368 349.357 793.352 352.194 792.008C355.106 790.589 358.354 789.88 361.938 789.88C365.821 789.88 369.181 790.627 372.018 792.12C374.93 793.613 377.207 795.816 378.85 798.728C380.493 801.64 381.314 805.299 381.314 809.704V847H362.274V814.744C362.274 810.861 361.527 808.173 360.034 806.68C358.541 805.187 356.637 804.44 354.322 804.44C352.53 804.44 350.85 804.888 349.282 805.784C347.714 806.605 346.482 807.949 345.586 809.816C344.69 811.683 344.242 814.184 344.242 817.32V847H325.202ZM421.983 848.12C415.786 848.12 410.41 846.963 405.855 844.648C401.375 842.333 397.903 839.011 395.439 834.68C392.975 830.349 391.743 825.123 391.743 819C391.743 812.877 392.975 807.651 395.439 803.32C397.903 798.989 401.338 795.667 405.743 793.352C410.223 791.037 415.338 789.88 421.087 789.88C426.986 789.88 431.988 791.037 436.095 793.352C440.276 795.592 443.45 798.728 445.615 802.76C447.78 806.717 448.863 811.272 448.863 816.424C448.863 817.768 448.826 819.112 448.751 820.456C448.676 821.8 448.564 822.92 448.415 823.816H404.063V813.624H440.015L430.943 817.096C430.943 812.616 430.122 809.181 428.479 806.792C426.911 804.403 424.447 803.208 421.087 803.208C418.698 803.208 416.644 803.768 414.927 804.888C413.284 806.008 412.015 807.763 411.119 810.152C410.298 812.541 409.887 815.603 409.887 819.336C409.887 822.995 410.372 825.981 411.343 828.296C412.314 830.536 413.695 832.179 415.487 833.224C417.279 834.195 419.444 834.68 421.983 834.68C424.82 834.68 427.06 834.12 428.703 833C430.42 831.88 431.69 830.312 432.511 828.296L447.743 833.336C446.698 836.547 444.868 839.272 442.255 841.512C439.716 843.677 436.655 845.32 433.071 846.44C429.562 847.56 425.866 848.12 421.983 848.12ZM486.842 848.12C480.645 848.12 475.269 846.963 470.714 844.648C466.234 842.333 462.762 839.011 460.298 834.68C457.834 830.349 456.602 825.123 456.602 819C456.602 812.877 457.834 807.651 460.298 803.32C462.762 798.989 466.197 795.667 470.602 793.352C475.082 791.037 480.197 789.88 485.946 789.88C491.845 789.88 496.848 791.037 500.954 793.352C505.136 795.592 508.309 798.728 510.474 802.76C512.64 806.717 513.722 811.272 513.722 816.424C513.722 817.768 513.685 819.112 513.61 820.456C513.536 821.8 513.424 822.92 513.274 823.816H468.922V813.624H504.874L495.802 817.096C495.802 812.616 494.981 809.181 493.338 806.792C491.77 804.403 489.306 803.208 485.946 803.208C483.557 803.208 481.504 803.768 479.786 804.888C478.144 806.008 476.874 807.763 475.978 810.152C475.157 812.541 474.746 815.603 474.746 819.336C474.746 822.995 475.232 825.981 476.202 828.296C477.173 830.536 478.554 832.179 480.346 833.224C482.138 834.195 484.304 834.68 486.842 834.68C489.68 834.68 491.92 834.12 493.562 833C495.28 831.88 496.549 830.312 497.37 828.296L512.602 833.336C511.557 836.547 509.728 839.272 507.114 841.512C504.576 843.677 501.514 845.32 497.93 846.44C494.421 847.56 490.725 848.12 486.842 848.12ZM524.374 847V791H541.174L541.958 803.096C543.376 798.915 545.467 795.667 548.23 793.352C551.067 791.037 554.651 789.88 558.982 789.88C560.4 789.88 561.595 789.992 562.566 790.216C563.611 790.44 564.432 790.739 565.03 791.112L563.126 806.792C562.379 806.493 561.408 806.269 560.214 806.12C559.094 805.896 557.712 805.784 556.07 805.784C553.83 805.784 551.739 806.269 549.798 807.24C547.856 808.211 546.288 809.667 545.094 811.608C543.974 813.475 543.414 815.864 543.414 818.776V847H524.374Z" fill="#222628"/>
</g>
</svg>
