<svg width="20" height="21" viewBox="0 0 20 21" fill="none" xmlns="http://www.w3.org/2000/svg">
<path d="M4.375 18.5571H15.625" stroke="white" stroke-width="1.5" stroke-linecap="round" stroke-linejoin="round"/>
<path d="M10 11.0571C11.3807 11.0571 12.5 9.93784 12.5 8.55713C12.5 7.17642 11.3807 6.05713 10 6.05713C8.61929 6.05713 7.5 7.17642 7.5 8.55713C7.5 9.93784 8.61929 11.0571 10 11.0571Z" stroke="white" stroke-width="1.5" stroke-linecap="round" stroke-linejoin="round"/>
<path d="M16.25 8.55713C16.25 14.1821 10 18.5571 10 18.5571C10 18.5571 3.75 14.1821 3.75 8.55713C3.75 6.89953 4.40848 5.30981 5.58058 4.13771C6.75269 2.96561 8.3424 2.30713 10 2.30713C11.6576 2.30713 13.2473 2.96561 14.4194 4.13771C15.5915 5.30981 16.25 6.89953 16.25 8.55713V8.55713Z" stroke="white" stroke-width="1.5" stroke-linecap="round" stroke-linejoin="round"/>
</svg>
