<svg width="56" height="56" viewBox="0 0 56 56" fill="none" xmlns="http://www.w3.org/2000/svg">
<path d="M28.0028 37.176C26.9175 37.176 25.9568 36.9633 25.1208 36.538C24.2848 36.1127 23.6322 35.5113 23.1628 34.734C22.7082 33.942 22.4808 33.0327 22.4808 32.006V21.864C22.4808 21.7907 22.5028 21.732 22.5468 21.688C22.6055 21.6293 22.6715 21.6 22.7448 21.6H24.7688C24.8422 21.6 24.9008 21.6293 24.9448 21.688C25.0035 21.732 25.0328 21.7907 25.0328 21.864V32.05C25.0328 32.9153 25.3042 33.6193 25.8468 34.162C26.3895 34.7047 27.1082 34.976 28.0028 34.976C28.8975 34.976 29.6162 34.7047 30.1588 34.162C30.7015 33.6193 30.9728 32.9153 30.9728 32.05V21.864C30.9728 21.7907 30.9948 21.732 31.0388 21.688C31.0975 21.6293 31.1635 21.6 31.2368 21.6H33.2608C33.3342 21.6 33.3928 21.6293 33.4368 21.688C33.4955 21.732 33.5248 21.7907 33.5248 21.864V32.006C33.5248 33.0327 33.2975 33.942 32.8428 34.734C32.3882 35.5113 31.7428 36.1127 30.9068 36.538C30.0708 36.9633 29.1028 37.176 28.0028 37.176Z" fill="#232628"/>
</svg>
